<?xml version="1.0" standalone="no"?>
<!DOCTYPE svg PUBLIC "-//W3C//DTD SVG 20010904//EN"
 "http://www.w3.org/TR/2001/REC-SVG-20010904/DTD/svg10.dtd">
<svg version="1.0" xmlns="http://www.w3.org/2000/svg"
 width="3150.000000pt" height="3150.000000pt" viewBox="0 0 3150.000000 3150.000000"
 preserveAspectRatio="xMidYMid meet">
<metadata>
Created by potrace 1.11, written by Peter Selinger 2001-2013
</metadata>
<g transform="translate(0.000000,3150.000000) scale(0.100000,-0.100000)"
fill="#000000" stroke="none">
<path d="M5485 26829 c-27 -5 -68 -11 -90 -14 -75 -10 -98 -16 -154 -36 -31
-11 -63 -22 -71 -24 -154 -38 -404 -179 -580 -326 -277 -232 -487 -512 -697
-929 -110 -219 -138 -282 -223 -500 -176 -457 -377 -1158 -464 -1622 -2 -13
-11 -53 -20 -89 -8 -37 -17 -78 -20 -90 -19 -103 -39 -207 -42 -224 -2 -11 -6
-31 -9 -45 -5 -27 -12 -60 -20 -100 -2 -14 -7 -41 -10 -60 -3 -19 -7 -46 -10
-60 -3 -14 -7 -38 -10 -55 -3 -16 -7 -41 -9 -55 -9 -48 -25 -145 -31 -180 -3
-19 -7 -46 -10 -60 -3 -14 -7 -43 -10 -65 -2 -22 -7 -51 -10 -65 -4 -22 -38
-246 -51 -340 -2 -19 -9 -62 -14 -95 -5 -33 -12 -87 -16 -120 -3 -33 -8 -68
-10 -79 -2 -10 -6 -44 -10 -75 -3 -31 -8 -63 -9 -71 -2 -8 -6 -44 -10 -80 -4
-36 -9 -73 -10 -82 -2 -9 -7 -48 -10 -85 -4 -37 -9 -75 -10 -83 -2 -8 -6 -44
-10 -80 -3 -36 -8 -81 -11 -100 -2 -19 -6 -60 -9 -90 -3 -30 -8 -71 -11 -90
-2 -19 -7 -66 -9 -105 -3 -38 -7 -80 -9 -92 -3 -12 -8 -57 -11 -100 -4 -43 -8
-89 -10 -103 -3 -14 -7 -61 -10 -105 -4 -44 -8 -96 -10 -115 -13 -136 -18
-191 -20 -230 -3 -41 -10 -130 -20 -250 -2 -25 -7 -83 -10 -130 -3 -47 -8
-116 -11 -155 -2 -38 -7 -99 -9 -135 -3 -36 -7 -96 -10 -135 -2 -38 -7 -119
-10 -180 -3 -60 -8 -137 -10 -170 -5 -62 -11 -182 -20 -365 -3 -58 -7 -145
-10 -195 -4 -85 -11 -248 -21 -520 -21 -571 -29 -1141 -28 -2015 1 -852 7
-1273 29 -1840 3 -80 8 -201 10 -270 4 -123 11 -283 20 -430 2 -41 7 -136 10
-210 4 -74 8 -151 10 -170 2 -19 6 -98 10 -175 3 -77 8 -153 10 -170 2 -16 7
-75 10 -130 3 -55 7 -118 9 -140 2 -22 7 -89 11 -150 3 -60 8 -121 10 -135 2
-14 7 -65 10 -115 3 -49 7 -110 10 -135 2 -25 6 -81 10 -125 3 -43 8 -93 10
-110 2 -16 7 -66 10 -110 4 -44 8 -93 10 -110 2 -16 6 -57 10 -90 11 -115 16
-170 20 -210 2 -22 7 -67 10 -100 3 -33 8 -78 11 -100 7 -56 12 -100 19 -170
4 -33 8 -71 10 -85 2 -14 6 -54 10 -90 3 -36 8 -72 10 -80 3 -8 7 -42 10 -75
3 -33 7 -71 10 -85 2 -14 7 -50 10 -80 3 -30 13 -102 21 -160 9 -57 17 -120
20 -140 3 -32 13 -94 19 -130 1 -8 6 -40 10 -70 8 -68 13 -99 25 -170 17 -99
20 -117 25 -156 3 -22 7 -50 10 -64 2 -13 7 -40 10 -60 3 -20 8 -47 10 -60 3
-14 8 -41 11 -60 3 -19 14 -84 25 -145 11 -60 22 -126 25 -145 3 -19 7 -43 10
-52 6 -19 12 -50 19 -93 5 -28 19 -99 30 -155 18 -85 25 -118 30 -140 3 -14
10 -46 15 -71 9 -49 19 -93 45 -203 9 -38 18 -77 20 -85 4 -20 84 -341 90
-361 3 -8 11 -40 19 -70 25 -96 119 -410 151 -505 32 -96 97 -280 106 -302 20
-49 28 -71 62 -158 80 -204 230 -511 325 -665 36 -58 72 -117 81 -132 30 -50
160 -223 208 -278 80 -92 224 -231 308 -300 87 -72 337 -225 400 -245 22 -7
91 -31 154 -54 101 -36 133 -44 216 -56 167 -23 213 -26 323 -22 70 3 136 7
147 10 12 3 48 8 80 12 99 12 341 83 490 145 231 96 504 246 732 403 43 30
101 69 128 88 61 41 276 202 325 241 19 16 40 32 45 36 35 26 173 137 245 197
128 106 131 109 148 125 9 8 32 28 51 43 20 16 54 45 76 65 22 21 74 67 117
104 85 73 138 121 177 158 14 14 73 68 131 120 57 52 123 113 146 135 23 22
120 114 216 205 95 90 369 361 608 601 394 395 537 542 846 868 55 57 117 123
139 146 22 23 90 95 150 160 61 64 126 134 145 155 41 43 131 139 215 231 325
352 411 445 586 639 57 63 111 121 119 130 8 9 45 50 81 91 37 41 78 86 90
100 13 14 58 63 99 109 41 46 80 88 85 94 6 6 46 51 90 101 44 49 89 99 100
111 11 11 47 52 80 90 33 38 69 78 80 89 11 12 47 52 80 91 33 38 63 71 66 74
3 3 47 52 98 110 51 58 110 123 130 145 20 23 63 72 96 109 33 38 67 76 75 85
9 9 45 50 80 91 36 41 72 82 80 90 29 32 138 156 215 245 43 50 81 92 84 95 3
3 31 34 61 70 30 36 62 72 70 80 8 8 42 46 75 85 56 65 222 255 341 390 29 33
62 71 74 85 49 58 119 139 185 214 184 210 281 323 400 461 71 83 139 161 152
175 13 14 32 36 44 50 50 60 115 135 129 150 8 8 67 76 130 150 63 74 117 137
120 140 3 3 32 36 65 75 161 187 208 240 217 243 4 2 8 8 8 13 0 5 8 17 18 27
23 24 125 141 149 171 l19 23 51 -58 c28 -33 115 -133 193 -224 177 -205 242
-280 255 -294 6 -6 50 -58 100 -116 49 -58 92 -107 95 -110 3 -3 88 -102 190
-220 101 -118 187 -217 190 -220 3 -3 34 -39 70 -80 36 -41 67 -77 70 -80 3
-3 32 -36 65 -75 74 -87 99 -115 161 -186 27 -30 70 -80 95 -110 26 -29 64
-74 85 -98 200 -229 344 -394 378 -432 23 -25 61 -70 86 -99 25 -28 54 -62 65
-74 30 -34 67 -76 225 -256 79 -91 158 -181 176 -200 17 -19 67 -75 110 -125
44 -49 86 -97 94 -105 8 -8 40 -44 70 -80 30 -35 62 -72 70 -80 8 -9 47 -52
85 -95 39 -44 77 -86 85 -95 8 -9 46 -52 85 -96 38 -43 74 -84 80 -90 5 -6 37
-42 70 -79 33 -38 71 -81 85 -95 14 -15 52 -57 85 -96 33 -38 71 -80 85 -94
14 -14 57 -61 95 -105 39 -44 77 -87 85 -95 8 -9 35 -39 60 -66 124 -138 210
-233 260 -288 69 -75 66 -72 180 -197 52 -57 100 -109 105 -115 6 -6 48 -52
95 -103 47 -51 99 -108 115 -126 17 -17 75 -80 130 -140 116 -125 124 -134
259 -279 55 -59 125 -134 155 -165 29 -31 110 -116 180 -190 218 -231 237
-250 494 -515 139 -143 361 -369 495 -502 211 -210 316 -313 656 -639 56 -53
213 -199 285 -264 14 -13 49 -44 76 -70 28 -26 84 -76 124 -111 41 -36 89 -78
105 -94 17 -15 53 -47 80 -70 28 -22 68 -57 90 -77 55 -48 223 -187 271 -224
21 -16 65 -52 97 -78 93 -77 362 -276 498 -368 375 -257 735 -438 1035 -521
162 -45 154 -43 225 -53 30 -4 64 -10 75 -12 38 -10 330 -12 376 -3 26 5 64
11 85 14 90 11 124 20 269 71 117 41 187 73 295 136 77 45 151 92 164 104 12
11 34 30 49 41 162 128 292 266 434 460 48 66 93 129 100 140 183 298 303 540
420 844 24 63 48 124 53 135 27 58 200 608 235 745 2 8 16 58 30 110 14 52 28
106 31 120 2 14 7 33 10 42 3 9 7 26 9 37 9 41 13 57 28 116 9 33 18 71 21 85
2 14 11 55 20 91 8 37 17 78 20 90 2 13 13 65 25 114 11 50 22 103 25 119 3
16 10 52 15 80 6 28 13 62 15 76 2 14 11 59 20 100 8 41 18 91 21 110 3 19 12
69 20 110 8 41 17 95 20 120 4 24 8 47 10 50 1 3 6 25 9 50 3 25 8 54 10 65 4
22 17 108 21 140 2 11 8 47 13 80 6 33 13 78 17 100 3 22 7 51 10 65 2 14 6
41 9 60 30 223 38 279 41 300 7 42 14 102 20 155 3 28 8 61 10 75 2 14 7 48
10 76 3 28 7 60 10 71 2 12 6 50 9 85 3 34 8 72 10 83 2 11 7 52 10 90 4 39 9
81 11 95 6 39 15 119 20 185 3 33 7 76 10 95 13 109 25 228 31 300 2 30 6 73
9 95 3 22 7 74 10 115 3 41 7 91 10 110 2 19 7 71 10 115 4 44 8 103 10 130 3
28 7 84 10 125 3 41 8 93 10 116 2 22 7 85 10 140 3 54 7 122 10 149 6 69 15
207 20 285 2 36 6 112 9 170 4 58 9 143 11 190 3 47 7 128 10 180 3 52 8 142
10 200 3 58 7 148 10 200 2 52 7 174 10 270 3 96 8 222 10 280 4 106 14 483
21 815 5 255 5 1623 0 1910 -10 512 -20 866 -41 1360 -3 72 -8 175 -10 230 -2
55 -6 141 -9 190 -3 50 -8 140 -11 200 -3 61 -8 137 -10 170 -2 33 -6 107 -10
165 -7 133 -14 231 -20 295 -3 28 -7 93 -10 145 -3 52 -7 111 -9 130 -2 19 -7
80 -11 135 -3 55 -8 114 -10 130 -3 17 -7 70 -10 119 -3 49 -8 103 -10 120 -5
39 -13 120 -20 216 -9 111 -13 150 -19 200 -4 25 -8 70 -11 100 -2 30 -6 75
-9 100 -3 25 -8 72 -11 105 -3 33 -8 74 -10 90 -3 17 -7 53 -10 80 -10 97 -17
160 -21 185 -2 14 -6 54 -9 90 -4 36 -8 72 -10 80 -2 8 -7 41 -10 73 -4 32 -8
66 -10 75 -1 9 -6 46 -10 82 -4 36 -9 72 -10 80 -1 8 -6 40 -10 70 -7 59 -9
69 -24 170 -6 36 -13 88 -16 116 -3 28 -8 61 -10 74 -3 13 -7 42 -10 65 -4 22
-8 54 -11 70 -3 17 -7 41 -9 55 -2 14 -6 41 -9 60 -4 19 -8 49 -10 65 -2 17
-12 73 -21 125 -9 52 -19 109 -22 125 -10 63 -54 304 -73 395 -10 52 -21 109
-24 125 -3 17 -8 41 -11 55 -3 14 -10 45 -15 70 -14 70 -59 278 -77 350 -8 36
-17 76 -20 89 -2 14 -6 28 -8 31 -2 4 -7 20 -9 36 -5 23 -51 205 -81 317 -3 9
-7 26 -9 37 -3 11 -7 24 -10 28 -3 5 -7 19 -10 33 -3 13 -14 56 -26 94 -23 77
-28 97 -34 123 -13 55 -154 462 -209 602 -106 269 -234 537 -337 708 -25 40
-56 92 -70 116 -14 23 -33 53 -43 67 -10 13 -50 67 -88 119 -92 123 -235 283
-310 345 -13 11 -48 40 -78 65 -30 25 -63 53 -72 62 -10 9 -83 55 -162 103
-118 69 -175 96 -304 141 -87 30 -169 56 -183 58 -14 2 -47 7 -75 11 -27 4
-70 11 -95 16 -47 9 -337 6 -380 -4 -14 -3 -45 -8 -70 -11 -39 -5 -120 -24
-237 -57 -18 -5 -48 -13 -65 -18 -40 -11 -63 -19 -103 -36 -16 -8 -55 -23 -85
-35 -88 -35 -210 -90 -220 -100 -3 -3 -36 -21 -75 -40 -119 -59 -507 -299
-535 -330 -3 -4 -21 -16 -40 -28 -20 -11 -47 -31 -60 -43 -14 -11 -45 -35 -70
-52 -54 -37 -213 -157 -220 -166 -3 -4 -44 -37 -93 -74 -48 -38 -107 -85 -131
-105 -24 -20 -61 -51 -82 -69 -22 -17 -48 -40 -59 -50 -11 -10 -45 -38 -75
-63 -30 -25 -75 -63 -100 -86 -60 -55 -89 -81 -151 -134 -29 -25 -64 -56 -79
-70 -37 -34 -196 -179 -229 -209 -378 -343 -1283 -1247 -1832 -1832 -24 -26
-99 -105 -165 -175 -67 -71 -136 -145 -154 -164 -18 -19 -83 -89 -145 -155
-61 -66 -134 -144 -161 -174 -27 -29 -60 -66 -74 -81 -40 -43 -196 -213 -222
-241 -12 -14 -63 -70 -113 -124 -49 -54 -101 -110 -115 -125 -43 -46 -174
-192 -190 -211 -15 -16 -131 -144 -182 -200 -12 -14 -57 -63 -98 -109 -41 -46
-84 -94 -95 -106 -11 -12 -49 -55 -85 -95 -36 -40 -69 -77 -75 -83 -5 -6 -44
-49 -85 -96 -41 -47 -78 -87 -81 -90 -3 -3 -40 -45 -84 -95 -43 -49 -83 -94
-89 -100 -6 -5 -26 -28 -45 -50 -19 -22 -64 -74 -101 -115 -104 -115 -239
-269 -300 -339 -30 -35 -60 -69 -65 -75 -6 -6 -46 -51 -89 -101 -44 -49 -92
-103 -107 -120 -15 -16 -47 -53 -71 -80 -42 -50 -153 -177 -173 -199 -5 -6
-41 -47 -80 -91 -38 -44 -82 -93 -96 -110 -24 -26 -217 -247 -274 -314 -11
-13 -24 -29 -30 -35 -5 -6 -39 -45 -74 -86 -36 -41 -70 -79 -75 -85 -6 -5 -67
-75 -136 -155 -68 -80 -127 -147 -130 -150 -5 -5 -96 -110 -150 -174 -14 -16
-41 -48 -61 -70 -32 -35 -102 -117 -190 -220 -13 -15 -33 -38 -44 -50 -11 -12
-40 -46 -65 -76 -25 -29 -52 -61 -60 -69 -9 -9 -40 -45 -70 -81 -69 -81 -98
-115 -130 -150 -32 -35 -42 -47 -254 -293 l-179 -209 -24 29 c-14 15 -44 50
-67 77 -66 77 -68 80 -126 147 -207 239 -249 287 -271 313 -13 16 -29 34 -34
40 -6 6 -82 94 -170 196 -88 102 -171 199 -186 215 -54 62 -186 214 -229 265
-54 63 -59 69 -130 150 -30 35 -71 81 -90 104 -19 22 -42 47 -50 56 -8 9 -71
81 -140 160 -68 80 -127 147 -130 150 -3 3 -48 55 -100 115 -107 124 -148 171
-170 195 -14 15 -111 125 -171 195 -14 16 -48 55 -75 86 -27 30 -76 86 -109
124 -78 90 -366 417 -419 476 -23 25 -64 72 -93 105 -28 32 -62 71 -75 85 -12
14 -36 41 -53 60 -57 65 -180 204 -200 225 -11 12 -47 52 -80 90 -33 37 -70
78 -82 92 -12 13 -44 48 -70 79 -26 30 -61 69 -78 87 -16 18 -64 70 -105 117
-41 46 -79 89 -85 95 -26 28 -161 178 -175 193 -19 22 -169 189 -190 211 -8 9
-53 58 -100 110 -47 52 -92 101 -100 110 -8 9 -53 58 -100 110 -47 51 -96 105
-110 120 -14 15 -49 54 -79 86 -85 92 -243 264 -276 299 -16 17 -57 61 -90 96
-238 255 -315 337 -350 374 -115 121 -367 386 -490 514 -186 194 -910 917
-1056 1056 -237 225 -287 272 -388 365 -57 52 -117 109 -135 125 -33 31 -149
134 -271 240 -38 33 -76 67 -85 75 -16 15 -247 209 -310 261 -205 167 -418
327 -600 453 -120 82 -347 226 -357 226 -4 0 -14 6 -22 14 -51 43 -422 217
-571 266 -75 25 -250 73 -277 76 -32 3 -104 15 -128 21 -38 10 -340 11 -390 2z"/>
</g>
</svg>
