<?xml version="1.0" standalone="no"?>
<!DOCTYPE svg PUBLIC "-//W3C//DTD SVG 20010904//EN"
 "http://www.w3.org/TR/2001/REC-SVG-20010904/DTD/svg10.dtd">
<svg version="1.0" xmlns="http://www.w3.org/2000/svg"
 width="3150.000000pt" height="3150.000000pt" viewBox="0 0 3150.000000 3150.000000"
 preserveAspectRatio="xMidYMid meet">
<metadata>
Created by potrace 1.11, written by Peter Selinger 2001-2013
</metadata>
<g transform="translate(0.000000,3150.000000) scale(0.100000,-0.100000)"
fill="#000000" stroke="none">
<path d="M5600 26021 c-30 -5 -35 -10 -33 -31 2 -38 21 -189 27 -215 2 -5 6
-32 10 -60 13 -83 13 -84 56 -83 40 0 40 1 41 42 5 155 3 324 -3 337 -7 17
-38 20 -98 10z"/>
<path d="M25692 26013 c-73 -12 -285 -75 -311 -92 -11 -7 -4 -33 39 -137 46
-113 89 -213 96 -222 1 -2 45 10 97 27 114 36 137 41 202 41 95 0 166 -23 260
-86 66 -43 182 -157 227 -221 16 -24 32 -43 36 -43 4 0 55 34 112 76 58 42
126 92 153 111 26 19 47 38 47 41 0 4 -11 20 -25 36 -14 16 -25 33 -25 37 0
17 -229 238 -285 275 -217 145 -410 193 -623 157z"/>
<path d="M5997 25843 c-25 -60 -56 -135 -68 -168 -12 -33 -26 -65 -31 -72 -10
-12 15 -26 105 -59 33 -12 213 -105 272 -141 11 -7 27 -15 35 -19 8 -4 26 -15
40 -25 14 -9 72 -48 130 -86 l106 -70 31 46 c17 25 67 98 110 162 l79 116
-105 71 c-203 136 -391 241 -569 317 -46 19 -85 35 -86 35 -2 0 -24 -48 -49
-107z"/>
<path d="M5184 25862 c-66 -48 -67 -52 -31 -97 68 -82 192 -231 203 -242 8 -8
19 -6 42 9 18 11 32 23 32 27 0 14 -185 324 -196 328 -6 2 -28 -9 -50 -25z"/>
<path d="M25052 25759 c-29 -16 -52 -33 -52 -37 0 -4 11 -24 25 -44 14 -20 25
-40 25 -43 0 -13 144 -235 153 -235 5 0 26 9 46 21 l37 21 -39 76 c-41 80
-138 265 -141 269 -1 1 -25 -11 -54 -28z"/>
<path d="M4839 25502 c-77 -107 -127 -189 -197 -322 -70 -134 -176 -369 -169
-377 3 -2 11 -6 19 -7 7 -2 27 -9 43 -16 59 -25 287 -110 294 -110 5 0 21 30
36 68 40 94 138 292 188 376 40 68 54 89 124 189 l33 45 -113 84 c-61 46 -133
98 -158 115 l-45 31 -55 -76z"/>
<path d="M24710 25543 c-19 -13 -36 -28 -38 -34 -4 -9 144 -235 191 -293 l23
-29 42 28 c23 15 42 33 42 39 -1 15 -203 309 -215 312 -6 1 -26 -9 -45 -23z"/>
<path d="M6917 25208 c-63 -84 -112 -157 -110 -163 2 -5 21 -22 42 -36 l38
-26 49 61 c27 33 81 102 121 153 l72 92 -37 27 c-20 15 -42 31 -49 36 -8 6
-47 -38 -126 -144z"/>
<path d="M24359 25283 c-88 -69 -70 -54 -299 -244 -102 -85 -201 -168 -220
-186 -19 -18 -38 -33 -42 -33 -31 0 20 -71 154 -215 25 -27 56 -61 67 -74 23
-26 22 -27 80 29 9 8 57 49 106 90 50 41 92 77 95 80 5 6 133 112 160 133 8 7
59 46 112 88 l97 77 -31 43 c-53 73 -200 269 -203 269 -2 0 -36 -26 -76 -57z"/>
<path d="M26790 25249 c-43 -24 -259 -154 -286 -172 l-31 -20 24 -43 24 -43
127 63 c70 35 148 75 174 89 l46 25 -24 50 c-28 58 -33 63 -54 51z"/>
<path d="M7217 24963 l-118 -148 36 -32 c19 -18 39 -33 44 -33 8 0 128 135
216 243 l39 49 -40 34 c-21 18 -44 33 -49 34 -6 0 -64 -66 -128 -147z"/>
<path d="M26875 24841 c-60 -27 -140 -62 -177 -79 l-67 -31 19 -43 c15 -32 25
-42 40 -41 21 3 221 77 302 112 l47 20 -21 48 c-11 26 -23 51 -27 55 -3 4 -55
-15 -116 -41z"/>
<path d="M7549 24753 c-52 -58 -109 -122 -126 -142 -18 -20 -33 -39 -33 -42 0
-3 28 -30 61 -59 34 -30 67 -59 73 -65 6 -5 31 -28 56 -49 51 -44 203 -183
259 -236 21 -19 65 -61 98 -93 l61 -57 129 135 c70 74 130 140 132 146 2 6
-16 29 -40 51 -24 22 -71 66 -105 97 -165 153 -417 380 -455 408 -13 11 -30
-3 -110 -94z"/>
<path d="M23528 24573 l-37 -38 60 -65 c33 -36 92 -100 131 -142 l71 -77 38
32 c20 18 38 37 38 44 1 11 -28 46 -113 137 -109 117 -138 146 -145 146 -4 0
-23 -17 -43 -37z"/>
<path d="M4365 24530 c-3 -5 -12 -29 -19 -54 -13 -42 -13 -44 8 -49 11 -3 93
-30 181 -60 88 -30 163 -52 168 -48 4 4 9 16 11 27 2 10 9 31 14 45 11 27 10
27 -81 60 -78 28 -266 89 -273 89 -2 0 -6 -4 -9 -10z"/>
<path d="M26960 24454 c-85 -30 -160 -56 -167 -57 -7 -2 -15 -6 -19 -9 -3 -4
14 -69 39 -145 76 -230 179 -586 180 -620 0 -19 13 -17 175 23 81 19 158 38
172 40 14 3 28 8 32 12 18 19 -222 813 -245 811 -7 0 -82 -25 -167 -55z"/>
<path d="M23248 24314 c-21 -19 -38 -38 -38 -42 0 -4 59 -70 132 -146 l131
-137 40 40 41 40 -49 53 c-70 76 -169 179 -196 205 l-24 22 -37 -35z"/>
<path d="M4240 24150 c-5 -10 -12 -35 -16 -57 -6 -37 -4 -41 17 -45 13 -3 94
-26 180 -52 86 -25 159 -46 162 -46 6 0 39 101 34 106 -3 3 -246 78 -315 97
-49 14 -53 14 -62 -3z"/>
<path d="M8417 24055 c-26 -27 -86 -88 -132 -135 -47 -47 -85 -88 -85 -92 0
-8 68 -78 76 -78 4 0 96 91 227 227 l47 49 -42 40 -43 40 -48 -51z"/>
<path d="M22920 24004 c-41 -41 -173 -173 -293 -292 l-217 -216 47 -50 c27
-27 88 -89 138 -138 l89 -88 63 62 c35 35 166 165 293 289 126 124 230 229
230 233 0 10 -261 276 -269 275 -3 0 -40 -34 -81 -75z"/>
<path d="M8603 23692 l-132 -137 36 -37 c21 -21 40 -38 44 -38 8 0 263 257
268 271 3 10 -65 80 -78 78 -3 0 -65 -62 -138 -137z"/>
<path d="M4127 23738 c-19 -67 -82 -328 -93 -383 -2 -11 -17 -81 -33 -155 -16
-74 -32 -147 -35 -163 -2 -15 -7 -36 -11 -46 -3 -11 -2 -22 3 -25 8 -5 216
-48 287 -60 17 -2 44 -7 60 -11 l31 -7 22 109 c50 244 122 560 151 660 9 32 9
33 -32 44 -23 6 -80 21 -127 34 -81 22 -132 35 -156 40 -6 2 -21 6 -32 9 -18
6 -22 0 -35 -46z"/>
<path d="M8883 23424 c-73 -74 -133 -138 -133 -142 1 -4 130 -139 288 -300
l288 -293 137 131 c75 73 137 135 137 140 0 4 -85 95 -189 201 -104 107 -233
240 -288 297 -55 56 -102 102 -104 102 -2 -1 -64 -62 -136 -136z"/>
<path d="M27385 23419 c-16 -5 -43 -11 -60 -14 -16 -3 -70 -16 -120 -29 -49
-13 -102 -27 -117 -30 -25 -6 -27 -8 -17 -34 6 -15 10 -28 10 -29 -4 -15 1
-53 7 -50 4 3 23 8 42 11 64 11 205 41 235 50 6 1 31 6 58 11 26 4 47 8 47 9
-1 0 -7 26 -14 56 -13 59 -22 64 -71 49z"/>
<path d="M22175 23259 l-39 -39 39 -41 c22 -22 71 -71 109 -107 38 -37 82 -81
98 -99 l30 -32 39 37 c21 20 39 41 39 45 0 8 -157 166 -241 243 l-34 31 -40
-38z"/>
<path d="M27479 23036 c-2 -2 -22 -6 -44 -9 -22 -3 -76 -13 -120 -22 -44 -10
-89 -19 -100 -21 -79 -15 -74 -10 -61 -67 9 -42 15 -52 31 -51 30 0 163 24
225 39 54 14 102 23 128 24 8 1 11 8 9 19 -3 9 -8 34 -12 55 -5 30 -10 37 -29
37 -12 0 -25 -2 -27 -4z"/>
<path d="M21905 22979 l-38 -41 112 -111 c63 -62 127 -123 143 -136 l29 -24
35 37 c19 20 34 40 34 44 0 7 -98 104 -231 230 l-45 42 -39 -41z"/>
<path d="M9750 22718 c-25 -22 -89 -82 -142 -133 l-96 -93 39 -41 40 -42 46
43 c25 24 89 84 142 135 l96 92 -40 40 -40 40 -45 -41z"/>
<path d="M21631 22692 c-24 -26 -105 -112 -180 -191 -75 -80 -167 -179 -206
-220 -38 -41 -85 -91 -102 -110 -18 -19 -33 -38 -33 -42 0 -4 50 -54 112 -111
62 -57 122 -113 135 -125 13 -13 28 -23 32 -23 5 0 60 55 122 122 168 180 297
317 391 414 l59 60 -97 95 c-53 52 -102 99 -108 104 -7 6 -28 24 -47 42 l-34
31 -44 -46z"/>
<path d="M3897 22673 c-11 -34 -19 -93 -14 -93 3 0 65 -11 138 -25 214 -40
227 -42 238 -36 5 4 13 29 16 56 l7 50 -129 24 c-255 47 -250 47 -256 24z"/>
<path d="M27495 22643 c-38 -7 -113 -20 -165 -29 -52 -9 -99 -20 -103 -24 -8
-7 5 -102 28 -220 3 -14 7 -36 10 -50 2 -14 11 -70 20 -125 9 -55 18 -111 20
-125 2 -14 11 -74 21 -135 9 -60 17 -118 16 -128 0 -10 5 -20 13 -23 11 -5
256 26 330 40 11 3 26 5 34 5 11 1 13 13 8 59 -4 31 -9 68 -12 82 -3 14 -7 43
-10 65 -4 33 -21 138 -61 380 -2 17 -10 57 -16 90 -6 33 -12 73 -14 90 -9 71
-5 69 -119 48z"/>
<path d="M10001 22423 c-35 -32 -100 -93 -144 -135 l-79 -76 39 -42 39 -42 74
68 c41 38 105 98 143 134 l69 66 -39 42 -39 43 -63 -58z"/>
<path d="M3830 22302 c0 -4 -3 -31 -6 -59 -6 -51 -5 -53 17 -54 13 0 31 -2 39
-4 54 -11 219 -37 299 -47 18 -2 32 3 27 10 -3 4 -1 26 4 48 10 45 7 50 -40
58 -19 3 -57 10 -85 15 -27 5 -68 12 -90 15 -100 13 -122 17 -143 21 -12 2
-22 1 -22 -3z"/>
<path d="M10270 22143 c-30 -27 -93 -86 -142 -132 l-87 -83 27 -28 c15 -15 64
-67 109 -116 110 -121 122 -133 233 -254 54 -58 119 -129 146 -158 l49 -54 25
22 c22 19 112 101 224 204 l39 36 -19 22 c-10 13 -36 41 -56 63 -20 22 -49 54
-64 70 -14 17 -52 57 -83 90 -31 33 -104 112 -162 175 -138 151 -175 190 -181
190 -3 0 -29 -21 -58 -47z"/>
<path d="M20878 21885 l-37 -41 97 -90 c53 -50 118 -109 144 -133 l46 -42 39
42 39 41 -55 53 c-31 28 -80 74 -110 101 -30 27 -63 58 -75 69 -47 44 -49 44
-88 0z"/>
<path d="M3769 21903 c0 -10 -2 -27 -4 -38 -2 -11 -7 -42 -10 -70 -3 -27 -8
-57 -10 -65 -2 -8 -7 -39 -10 -69 -4 -30 -9 -63 -11 -75 -2 -12 -6 -41 -9 -66
-3 -25 -7 -61 -10 -80 -3 -19 -7 -57 -10 -85 -3 -27 -7 -61 -10 -75 -2 -14 -7
-50 -10 -80 -3 -30 -8 -67 -11 -82 -3 -23 0 -28 16 -29 11 -1 23 -2 28 -3 4
-1 36 -6 72 -10 36 -5 72 -10 80 -11 52 -9 190 -15 190 -8 0 4 4 37 10 73 5
36 11 90 15 120 3 30 8 66 10 80 2 14 9 63 15 110 19 153 21 164 30 225 5 33
12 80 15 105 3 25 8 57 10 71 l5 26 -148 21 c-244 36 -242 36 -243 15z"/>
<path d="M20615 21599 l-37 -41 48 -45 c161 -149 218 -199 231 -206 11 -7 24
2 49 29 19 20 33 40 32 44 -2 4 -41 42 -88 85 -47 43 -105 97 -130 120 -65 59
-64 59 -105 14z"/>
<path d="M27749 21556 c-2 -2 -35 -7 -74 -10 -38 -3 -79 -8 -90 -10 -11 -2
-47 -7 -80 -12 -33 -4 -63 -8 -67 -10 -5 -1 -18 -2 -29 -3 -19 -1 -21 -5 -16
-51 3 -27 8 -53 11 -58 3 -5 26 -6 53 -2 27 5 111 16 189 26 l141 18 -3 25
c-2 14 -4 41 -6 59 -2 28 -15 41 -29 28z"/>
<path d="M10990 21302 c-46 -42 -110 -102 -142 -132 l-57 -55 32 -37 c18 -21
37 -38 42 -38 6 0 29 17 53 38 137 120 221 199 227 211 3 9 -8 29 -32 52 l-38
38 -85 -77z"/>
<path d="M20370 21331 c-8 -10 -51 -58 -95 -106 -44 -48 -87 -96 -95 -105 -8
-9 -48 -53 -88 -97 -39 -44 -89 -100 -110 -123 -20 -24 -61 -69 -89 -99 -29
-31 -53 -59 -53 -62 0 -11 241 -231 278 -253 8 -5 20 0 30 12 9 10 45 50 79
88 34 38 71 80 83 94 12 14 43 48 68 75 26 28 67 73 91 100 52 58 130 144 180
198 l35 37 -50 48 c-27 26 -88 81 -134 122 -47 41 -86 78 -88 83 -6 13 -27 7
-42 -12z"/>
<path d="M27705 21159 c-138 -15 -171 -19 -190 -23 -11 -3 -34 -5 -52 -5 -21
-1 -31 -5 -28 -13 3 -7 6 -33 8 -58 3 -41 6 -45 28 -43 76 6 314 32 345 38 21
5 23 23 8 93 -5 24 -2 24 -119 11z"/>
<path d="M11250 21013 c-47 -41 -111 -101 -143 -131 l-58 -55 40 -40 40 -40
83 73 c46 41 88 79 93 84 6 6 33 32 61 57 l50 46 -38 42 c-21 22 -40 41 -41
41 -1 -1 -40 -35 -87 -77z"/>
<path d="M3629 20808 c0 -7 -3 -34 -5 -60 l-5 -48 33 -2 c48 -2 80 -5 109 -11
15 -3 66 -8 115 -12 49 -4 99 -8 110 -10 19 -3 22 3 27 48 3 29 2 55 -1 58 -4
4 -38 10 -76 13 -38 4 -71 8 -75 10 -3 2 -46 7 -95 11 -49 4 -99 9 -112 11
-15 3 -24 -1 -25 -8z"/>
<path d="M11564 20773 c-17 -16 -58 -51 -90 -80 -32 -29 -84 -75 -114 -102
l-55 -50 31 -33 c17 -18 49 -53 71 -78 22 -25 51 -57 64 -71 26 -29 78 -87
269 -301 l122 -137 81 71 c45 39 111 98 146 130 71 67 72 52 -5 138 -18 19
-42 47 -55 61 -13 15 -47 53 -75 85 -29 33 -62 71 -75 85 -33 35 -160 177
-182 203 -35 40 -97 106 -100 106 -1 0 -16 -12 -33 -27z"/>
<path d="M27838 20784 c-2 -1 -34 -5 -73 -8 -38 -4 -104 -11 -145 -17 -41 -6
-88 -11 -105 -12 -26 -2 -30 -6 -29 -32 0 -34 14 -184 19 -218 2 -12 6 -56 10
-97 3 -41 8 -88 10 -105 2 -16 6 -59 9 -95 10 -122 19 -225 22 -240 1 -8 3
-21 3 -28 1 -10 21 -12 89 -7 87 5 182 15 211 20 9 2 33 4 54 4 l38 1 -6 58
c-3 31 -8 73 -11 92 -2 19 -6 64 -9 100 -7 96 -24 268 -30 315 -2 17 -7 65
-10 109 -4 43 -9 85 -10 95 -2 9 -4 28 -4 42 -1 16 -7 26 -16 26 -8 0 -16 -1
-17 -3z"/>
<path d="M19614 20489 l-39 -41 70 -64 c39 -36 95 -86 125 -112 30 -26 62 -55
71 -64 22 -25 29 -22 69 24 l34 40 -36 32 c-20 18 -71 64 -113 102 -78 70 -84
75 -121 106 -20 17 -22 16 -60 -23z"/>
<path d="M3589 20413 c-1 -10 -3 -37 -4 -60 l-4 -43 47 -1 c26 -1 56 -3 67 -4
11 -2 54 -6 95 -9 41 -4 99 -9 128 -12 51 -5 52 -5 53 23 0 15 3 40 5 56 3 19
0 27 -11 28 -8 1 -18 2 -22 3 -8 2 -118 15 -183 21 -180 18 -170 18 -171 -2z"/>
<path d="M19356 20198 l-38 -41 34 -31 c56 -52 132 -119 173 -155 22 -19 50
-43 63 -55 l23 -21 38 44 38 44 -41 36 c-23 20 -43 38 -46 41 -8 8 -173 153
-191 167 -13 11 -21 6 -53 -29z"/>
<path d="M3549 19998 c0 -24 -2 -50 -3 -58 -3 -13 -9 -90 -21 -255 -2 -22 -6
-74 -9 -115 -7 -77 -12 -149 -22 -282 -3 -43 -1 -78 3 -79 39 -5 72 -8 158
-13 55 -4 128 -9 163 -11 62 -4 62 -4 63 23 1 15 2 38 4 52 1 14 5 78 9 144 4
65 9 125 11 135 1 9 6 59 10 111 3 52 8 113 10 135 1 22 6 82 10 133 l7 92
-34 1 c-18 0 -40 2 -48 3 -26 6 -132 16 -222 22 l-88 6 -1 -44z"/>
<path d="M12289 19937 c-118 -107 -203 -182 -225 -200 -14 -11 -22 -23 -17
-26 4 -3 23 -23 40 -44 l33 -37 87 77 c49 43 93 82 99 88 6 5 32 30 58 53 l47
44 -33 38 c-18 21 -37 39 -43 39 -5 0 -26 -14 -46 -32z"/>
<path d="M19117 19930 c-8 -12 -34 -42 -58 -68 -24 -26 -59 -65 -78 -87 -19
-22 -62 -71 -96 -110 -34 -38 -116 -130 -181 -204 l-118 -134 64 -60 c36 -33
87 -78 114 -101 27 -22 57 -48 66 -56 9 -8 23 -21 33 -28 19 -16 13 -22 112
93 91 104 112 128 176 200 29 33 63 71 74 84 11 14 27 32 35 41 8 9 50 55 93
102 l77 86 -57 55 c-67 63 -232 207 -238 207 -2 0 -10 -9 -18 -20z"/>
<path d="M12560 19657 c-14 -12 -56 -49 -94 -82 -38 -33 -91 -80 -117 -105
l-48 -45 37 -43 37 -43 30 28 c17 15 46 41 65 57 19 15 72 62 117 103 l82 75
-36 39 c-20 21 -39 39 -42 39 -4 0 -17 -10 -31 -23z"/>
<path d="M27927 19674 c-1 -1 -49 -5 -107 -8 -58 -4 -134 -10 -170 -14 -64 -7
-65 -7 -64 -37 4 -93 2 -87 32 -81 15 3 74 8 132 11 58 3 114 8 125 10 11 2
39 4 61 4 l41 1 -2 38 c-1 20 -3 47 -4 59 -1 15 -7 21 -21 20 -12 -1 -22 -2
-23 -3z"/>
<path d="M12785 19339 c-60 -51 -186 -163 -211 -187 -19 -19 -18 -22 24 -68
20 -22 62 -69 92 -104 30 -34 60 -68 65 -74 6 -6 57 -65 115 -131 58 -66 109
-125 115 -131 5 -6 34 -38 64 -72 l53 -62 52 42 c45 38 191 164 223 195 7 6
13 15 13 19 0 6 -85 111 -100 124 -4 3 -51 57 -106 120 -54 63 -111 129 -126
145 -14 17 -36 41 -48 55 -12 14 -47 54 -78 89 -31 35 -61 70 -65 77 -12 21
-17 18 -82 -37z"/>
<path d="M27897 19284 c-1 -1 -47 -5 -102 -9 -88 -6 -125 -9 -173 -14 -9 -1
-13 -14 -11 -43 5 -78 -20 -73 274 -53 125 9 120 7 119 46 -4 87 1 80 -55 77
-28 -2 -51 -4 -52 -4z"/>
<path d="M18368 19076 l-38 -41 43 -40 c23 -22 72 -65 107 -95 36 -30 76 -65
90 -78 48 -45 55 -45 94 -1 30 32 34 42 24 52 -28 26 -176 156 -228 199 l-55
46 -37 -42z"/>
<path d="M3468 18879 c-2 -30 -3 -55 -2 -57 3 -5 61 -9 214 -18 196 -10 178
-15 179 51 l0 55 -32 1 c-18 1 -45 2 -62 4 -16 2 -89 7 -161 11 l-132 7 -4
-54z"/>
<path d="M27765 18887 c-66 -5 -121 -10 -122 -11 -6 -6 -5 -55 1 -151 10 -155
22 -372 31 -580 1 -38 3 -76 4 -84 1 -12 29 -13 169 -7 92 4 176 8 187 11 11
2 23 4 28 4 7 1 5 52 -8 286 -2 44 -7 136 -11 205 -4 69 -8 141 -9 160 -1 19
-4 67 -5 106 l-3 72 -71 -2 c-39 0 -125 -5 -191 -9z"/>
<path d="M18124 18798 c-52 -59 -52 -54 11 -111 117 -104 228 -197 236 -197 4
0 22 18 39 40 l32 41 -29 27 c-15 15 -67 60 -113 100 -47 41 -97 85 -112 98
-32 30 -39 30 -64 2z"/>
<path d="M13505 18498 c-38 -33 -99 -86 -134 -117 -34 -31 -67 -57 -72 -59
-17 -7 -9 -27 25 -67 l34 -39 63 55 c90 77 125 108 181 159 l49 45 -38 42 -38
42 -70 -61z"/>
<path d="M3461 18541 c-7 -5 -14 -31 -16 -60 -3 -46 -1 -51 19 -52 11 0 44 -2
71 -4 28 -2 105 -6 172 -9 134 -6 130 -8 129 63 -1 52 15 48 -196 57 -85 3
-157 8 -160 9 -3 2 -12 0 -19 -4z"/>
<path d="M17833 18463 c-33 -38 -71 -81 -84 -97 -13 -16 -31 -36 -39 -45 -9
-9 -56 -63 -105 -121 -50 -57 -97 -111 -105 -120 -28 -30 -125 -143 -137 -160
-14 -20 -24 -9 165 -172 l116 -100 24 29 c14 15 39 44 56 63 17 19 69 80 116
135 47 55 94 109 105 121 11 11 56 62 100 114 44 51 95 109 112 130 l33 38
-77 68 c-41 38 -90 80 -106 94 -17 14 -48 40 -68 58 -20 17 -39 32 -42 32 -3
0 -32 -30 -64 -67z"/>
<path d="M13808 18247 c-7 -6 -29 -25 -48 -41 -19 -15 -68 -58 -109 -95 -41
-36 -82 -72 -92 -79 -25 -17 -24 -21 15 -66 25 -28 38 -36 49 -30 27 16 277
236 277 245 0 11 -60 79 -70 79 -5 0 -15 -6 -22 -13z"/>
<path d="M3430 18146 c-1 -6 -3 -47 -5 -91 -12 -248 -28 -735 -23 -735 1 0 90
-3 196 -7 l192 -6 1 54 c2 117 14 441 24 670 4 81 3 106 -7 106 -386 22 -378
22 -378 9z"/>
<path d="M14044 17939 c-21 -18 -87 -76 -146 -128 l-108 -94 53 -61 c28 -33
54 -63 57 -66 4 -3 95 -108 204 -235 109 -126 206 -238 215 -248 16 -16 18
-16 51 10 53 44 119 101 192 165 l68 60 -29 37 c-17 20 -40 48 -53 62 -13 14
-102 117 -198 229 -96 112 -196 226 -221 253 l-45 50 -40 -34z"/>
<path d="M27837 17783 c-2 -1 -35 -3 -75 -5 l-72 -2 3 -56 2 -55 130 3 c113 3
216 7 250 11 6 0 10 13 9 29 -1 15 -3 39 -3 54 l-1 27 -121 -2 c-66 -1 -121
-3 -122 -4z"/>
<path d="M17133 17658 c-18 -21 -30 -44 -27 -51 6 -13 129 -122 228 -202 l58
-48 34 39 c18 21 33 41 34 44 0 10 -201 187 -280 246 -12 9 -21 4 -47 -28z"/>
<path d="M16876 17359 l-35 -41 32 -27 c17 -14 43 -37 57 -50 51 -48 201 -171
209 -171 4 0 22 18 40 40 l32 40 -28 24 c-15 13 -44 38 -63 56 -66 60 -197
170 -203 170 -3 0 -21 -19 -41 -41z"/>
<path d="M27754 17392 l-50 -3 0 -49 c1 -26 4 -51 8 -55 6 -7 234 -7 288 0 14
1 41 3 61 4 l36 1 -2 53 -1 52 -144 0 c-80 0 -168 -1 -196 -3z"/>
<path d="M14788 17123 c-1 -5 -52 -51 -113 -103 -60 -52 -122 -105 -136 -118
l-27 -23 38 -42 38 -41 35 27 c19 15 41 32 49 39 7 7 47 42 88 78 133 115 125
106 109 127 -50 63 -71 77 -81 56z"/>
<path d="M16607 17048 c-30 -35 -103 -119 -162 -188 -59 -69 -119 -139 -134
-155 -14 -17 -63 -74 -109 -127 l-82 -96 42 -40 c24 -22 74 -66 113 -98 38
-33 83 -71 100 -86 16 -16 33 -28 36 -28 7 0 56 54 133 145 32 38 61 72 65 75
3 3 31 34 61 70 30 36 59 70 65 76 13 14 41 47 143 166 l82 96 -27 22 c-16 12
-48 41 -73 64 -25 23 -67 59 -95 81 -27 22 -54 45 -60 50 -36 38 -40 37 -98
-27z"/>
<path d="M3395 17041 c-3 -2 -5 -28 -5 -58 l0 -53 78 -1 c42 -1 130 -2 195 -4
l117 -2 0 58 0 58 -107 1 c-60 1 -145 3 -191 4 -45 1 -85 0 -87 -3z"/>
<path d="M28065 17014 c-5 -2 -86 -4 -180 -6 l-170 -3 3 -190 c2 -105 5 -278
7 -385 1 -107 3 -209 4 -226 l1 -31 190 1 c160 1 191 3 194 16 3 8 3 103 1
210 -2 107 -5 288 -6 402 -3 176 -6 207 -19 211 -8 2 -19 2 -25 1z"/>
<path d="M14985 16778 c-38 -34 -99 -86 -133 -117 -35 -31 -68 -57 -73 -59
-13 -5 -11 -18 4 -34 7 -7 22 -26 34 -41 l21 -28 104 88 c57 48 114 97 128
110 14 12 35 30 47 41 l21 18 -35 42 c-19 23 -38 42 -41 41 -4 0 -38 -28 -77
-61z"/>
<path d="M3390 16650 c-6 -3 -9 -28 -8 -56 l3 -49 55 -2 c157 -5 321 -6 325
-1 8 8 12 87 5 99 -8 12 -361 21 -380 9z"/>
<path d="M15225 16473 c-49 -42 -116 -99 -147 -127 l-58 -51 206 -240 c114
-132 229 -266 258 -299 28 -32 55 -65 59 -72 13 -23 25 -17 102 46 40 33 76
60 79 60 4 0 47 -34 96 -76 l90 -77 35 39 c19 21 34 42 35 46 0 3 -38 39 -85
80 l-84 73 26 20 26 21 -99 115 c-111 128 -144 167 -159 183 -5 6 -35 40 -65
76 -30 36 -57 67 -60 70 -3 3 -32 37 -65 75 -33 39 -69 80 -80 92 l-20 21 -90
-75z"/>
<path d="M3379 16252 c-3 -71 -4 -800 -1 -810 3 -9 48 -12 186 -11 99 1 186 4
192 6 7 2 11 135 12 412 1 378 0 409 -16 413 -10 3 -97 6 -195 6 -161 1 -177
0 -178 -16z"/>
<path d="M15900 16229 l-33 -42 49 -44 c88 -80 235 -203 243 -203 4 0 24 18
44 39 l37 40 -28 21 c-15 12 -45 38 -67 59 -49 46 -201 171 -207 171 -3 0 -20
-19 -38 -41z"/>
<path d="M27793 15902 c-40 -2 -63 -7 -64 -15 0 -7 -2 -31 -2 -55 l-2 -42 40
-1 c59 -2 211 -2 287 0 l66 1 0 55 c-1 30 -4 55 -7 56 -20 3 -267 3 -318 1z"/>
<path d="M15935 15623 c-55 -47 -121 -104 -146 -127 l-46 -42 36 -42 37 -42
99 83 c55 45 122 103 149 129 l49 45 -39 41 -39 41 -100 -86z"/>
<path d="M15418 15666 c-20 -20 -67 -74 -128 -146 -30 -36 -59 -70 -65 -76
-11 -13 -24 -28 -150 -174 -49 -58 -98 -114 -108 -125 -10 -11 -32 -36 -47
-56 l-29 -36 47 -41 c26 -22 56 -49 67 -59 11 -10 57 -49 101 -86 l82 -67 143
168 c79 92 156 181 170 197 15 17 73 83 128 147 l102 117 -32 28 c-18 15 -39
35 -48 44 -30 29 -209 179 -214 179 -3 0 -12 -6 -19 -14z"/>
<path d="M27729 15488 c-1 -15 -1 -40 -2 -55 l-1 -28 196 -3 196 -3 0 56 c0
49 -3 55 -22 56 -11 1 -99 3 -193 4 l-173 1 -1 -28z"/>
<path d="M16244 15377 c-62 -49 -244 -210 -244 -215 0 -9 62 -82 70 -82 5 0
15 6 22 13 7 7 54 47 103 89 50 42 108 92 130 112 l40 35 -31 37 c-16 21 -34
39 -40 41 -5 1 -27 -12 -50 -30z"/>
<path d="M3760 15166 c-3 -3 -90 -6 -193 -7 l-187 -2 0 -58 0 -58 191 3 c104
2 192 6 195 9 3 2 4 30 2 62 -2 31 -5 54 -8 51z"/>
<path d="M27723 15013 c-1 -65 -4 -252 -7 -415 -4 -164 -6 -298 -4 -299 2 0
90 -3 196 -6 l192 -6 1 49 c0 27 2 110 4 184 2 74 5 241 6 370 l3 235 -195 3
-195 4 -1 -119z"/>
<path d="M16470 15060 c-41 -34 -108 -91 -147 -127 l-73 -65 48 -57 c26 -31
52 -61 57 -67 6 -6 30 -35 55 -64 25 -29 50 -58 56 -64 5 -6 39 -45 74 -86 35
-41 67 -77 70 -80 3 -3 45 -51 93 -107 48 -57 90 -103 92 -103 3 0 13 8 182
155 l112 97 -82 97 c-45 53 -84 98 -87 101 -3 3 -46 52 -95 110 -50 58 -94
110 -100 116 -5 6 -32 37 -60 69 -27 32 -66 76 -85 98 l-36 39 -74 -62z"/>
<path d="M14676 14808 c-20 -23 -36 -44 -35 -47 0 -5 157 -142 223 -196 6 -5
24 -21 40 -35 l28 -25 38 44 38 44 -31 26 c-18 14 -39 33 -47 42 -8 9 -61 55
-117 103 l-102 86 -35 -42z"/>
<path d="M3475 14770 l-90 -5 1 -37 c3 -81 -6 -74 102 -72 53 0 141 3 194 5
l97 3 -2 55 -2 56 -105 0 c-58 0 -145 -2 -195 -5z"/>
<path d="M14423 14513 c-18 -20 -33 -39 -33 -43 0 -8 30 -36 173 -158 96 -82
137 -107 137 -84 0 4 11 20 25 36 14 16 24 32 23 36 -3 6 -98 93 -154 140 -73
62 -132 110 -135 110 -2 0 -19 -17 -36 -37z"/>
<path d="M3429 14382 l-37 -3 3 -97 c18 -562 24 -725 30 -731 5 -5 204 -2 310
4 22 2 48 3 58 4 16 1 17 12 12 134 -2 72 -7 224 -11 337 -6 209 -10 310 -13
343 -1 18 -11 19 -158 15 -87 -1 -174 -4 -194 -6z"/>
<path d="M17245 14270 c-4 -6 -34 -33 -68 -61 -34 -28 -80 -68 -102 -88 -22
-20 -54 -48 -72 -62 l-32 -27 35 -41 c20 -22 39 -41 43 -41 7 0 40 28 180 150
124 108 116 98 99 118 -9 9 -24 27 -34 40 -20 24 -39 28 -49 12z"/>
<path d="M14154 14202 c-27 -31 -61 -70 -75 -87 -15 -16 -79 -91 -144 -165
-64 -74 -129 -149 -144 -165 -136 -155 -136 -155 -112 -171 12 -9 45 -37 74
-64 83 -77 197 -170 207 -170 6 0 10 3 10 8 0 4 15 23 33 43 17 20 43 49 57
65 38 45 154 178 160 184 3 3 32 36 65 75 33 38 72 83 86 100 15 16 50 57 78
90 l51 60 -33 30 c-48 45 -240 210 -253 218 -7 4 -32 -17 -60 -51z"/>
<path d="M27706 14021 c-7 -11 -11 -100 -5 -106 3 -2 91 -7 196 -9 l190 -5 2
57 1 57 -102 3 c-57 2 -142 5 -190 7 -48 2 -90 0 -92 -4z"/>
<path d="M17479 13957 c-20 -17 -84 -72 -142 -122 -58 -49 -106 -94 -106 -98
-1 -4 15 -26 35 -47 l37 -40 36 33 c21 17 63 54 95 81 31 27 80 70 108 96 l51
47 -33 42 c-18 22 -36 41 -39 41 -3 0 -22 -15 -42 -33z"/>
<path d="M17727 13659 c-50 -40 -170 -144 -219 -190 l-27 -25 81 -95 c44 -51
97 -112 117 -135 20 -23 57 -65 83 -95 25 -30 56 -65 68 -79 32 -38 131 -150
166 -189 l31 -35 29 23 c35 27 147 125 189 165 16 15 41 37 54 47 l23 19 -118
137 c-65 76 -121 140 -124 143 -3 3 -34 39 -70 80 -36 41 -69 80 -75 86 -5 6
-30 35 -55 64 -25 29 -58 67 -75 85 l-30 33 -48 -39z"/>
<path d="M27689 13638 c0 -1 -2 -27 -4 -55 -3 -36 0 -53 8 -54 61 -5 122 -8
240 -13 136 -5 137 -5 138 17 5 78 3 90 -15 93 -31 4 -366 16 -367 12z"/>
<path d="M13461 13402 c-8 -9 -24 -27 -35 -40 l-20 -23 24 -22 c47 -42 165
-144 189 -163 13 -10 33 -29 44 -41 11 -13 26 -23 33 -23 11 0 74 64 74 76 0
8 -13 20 -120 113 -52 46 -110 96 -127 112 -37 33 -43 34 -62 11z"/>
<path d="M3697 13284 c-2 -1 -224 -13 -258 -14 -5 0 -5 -55 0 -113 1 -4 11 -5
24 -3 12 3 93 8 180 11 87 3 165 9 173 12 12 4 14 45 5 104 -1 5 -117 8 -124
3z"/>
<path d="M27669 13227 c-1 -18 -2 -48 -4 -67 -1 -19 -5 -100 -10 -180 -4 -80
-8 -163 -10 -185 -1 -22 -6 -101 -9 -175 -4 -74 -10 -147 -12 -162 -3 -18 0
-28 8 -29 7 0 20 -2 29 -4 9 -1 63 -6 120 -9 57 -4 132 -9 167 -12 45 -3 62
-1 63 8 0 7 2 21 4 31 2 10 6 80 10 155 3 75 8 155 10 177 3 39 10 157 20 368
l5 97 -38 0 c-43 0 -222 9 -299 14 l-53 4 -1 -31z"/>
<path d="M13187 13089 c-27 -32 -33 -44 -24 -53 7 -6 48 -43 92 -81 44 -39 82
-72 85 -75 3 -3 28 -24 57 -48 l51 -42 36 42 36 43 -38 35 c-52 50 -250 220
-255 220 -2 0 -20 -19 -40 -41z"/>
<path d="M3647 12894 c-2 -2 -137 -12 -178 -13 -15 -1 -17 -24 -10 -105 1 -8
214 -2 306 9 17 1 42 3 57 4 26 1 27 3 25 54 l-2 52 -98 1 c-54 0 -98 -1 -100
-2z"/>
<path d="M18435 12809 c-33 -28 -91 -79 -129 -113 -38 -33 -76 -66 -85 -72
-13 -10 -10 -17 18 -53 18 -22 37 -41 42 -41 5 0 22 11 37 24 196 170 252 220
252 228 0 10 -60 78 -69 78 -3 0 -33 -23 -66 -51z"/>
<path d="M12799 12643 c-95 -109 -176 -200 -179 -203 -20 -18 -190 -219 -190
-224 0 -8 72 -75 180 -167 118 -101 104 -96 142 -53 18 21 42 48 53 60 25 28
47 52 169 194 55 63 104 120 110 125 6 6 50 56 99 112 71 83 84 104 71 111 -8
5 -34 26 -57 48 -23 22 -71 64 -107 94 -36 30 -67 57 -70 60 -48 48 -33 58
-221 -157z"/>
<path d="M18606 12446 c-76 -68 -138 -126 -138 -130 0 -4 16 -25 35 -46 l34
-39 92 79 c50 43 116 101 146 128 l55 50 -33 41 c-17 22 -36 40 -42 40 -5 0
-72 -55 -149 -123z"/>
<path d="M3829 12516 c-2 -2 -67 -7 -144 -10 -77 -4 -151 -8 -165 -9 -29 -3
-52 -15 -46 -26 3 -4 7 -52 11 -106 3 -55 8 -126 10 -157 3 -31 7 -94 10 -140
3 -46 8 -108 10 -138 3 -30 8 -95 11 -143 9 -133 2 -122 75 -121 35 0 105 4
154 8 164 12 179 16 171 44 -3 10 -8 60 -11 112 -3 52 -8 111 -10 130 -2 19
-7 78 -10 130 -4 52 -8 115 -10 140 -2 25 -6 97 -10 160 -7 103 -14 129 -36
130 -3 0 -8 -2 -10 -4z"/>
<path d="M18905 12192 c-172 -149 -188 -167 -173 -183 7 -8 40 -45 73 -84 33
-38 67 -76 75 -85 8 -9 28 -32 45 -51 16 -19 48 -54 70 -79 22 -25 67 -76 100
-114 64 -73 79 -89 138 -155 l38 -41 82 72 c45 39 111 98 146 130 l63 59 -28
32 c-45 48 -65 70 -125 138 -31 35 -112 127 -180 204 -68 77 -144 164 -168
193 -24 28 -47 52 -50 52 -3 -1 -51 -40 -106 -88z"/>
<path d="M27600 12111 c0 -28 0 -54 0 -58 -1 -9 74 -19 220 -29 183 -12 165
-18 168 49 l3 57 -38 1 c-21 0 -47 2 -58 4 -11 2 -78 7 -150 11 -71 3 -133 8
-137 11 -5 2 -8 -19 -8 -46z"/>
<path d="M12206 11968 l-37 -43 63 -59 c35 -32 101 -90 147 -129 l84 -71 33
39 c19 22 34 43 34 46 0 6 -97 95 -185 170 -22 19 -42 36 -45 39 -3 3 -17 15
-31 28 l-26 23 -37 -43z"/>
<path d="M27572 11712 c3 -49 6 -57 23 -58 11 -1 46 -4 77 -7 32 -4 109 -9
172 -13 l114 -6 4 47 c2 25 1 51 -2 55 -3 5 -26 11 -50 14 -66 6 -184 16 -268
21 l-73 4 3 -57z"/>
<path d="M11947 11677 l-36 -42 28 -25 c15 -14 61 -55 102 -92 132 -119 154
-138 160 -138 4 0 23 18 42 41 l36 41 -122 110 c-67 60 -134 118 -148 128
l-26 19 -36 -42z"/>
<path d="M19694 11412 c-22 -20 -86 -77 -142 -127 -112 -99 -109 -86 -46 -151
l22 -23 43 37 c43 36 76 65 174 155 28 26 53 47 58 47 18 0 4 39 -26 68 -18
18 -35 32 -37 32 -3 0 -23 -17 -46 -38z"/>
<path d="M11702 11398 c-53 -58 -92 -102 -145 -162 -57 -64 -68 -76 -142 -157
-45 -49 -124 -139 -206 -232 -16 -17 -29 -35 -29 -38 0 -4 15 -20 34 -36 19
-16 63 -56 98 -89 35 -32 84 -76 109 -97 l44 -37 40 42 c22 24 69 76 105 117
36 41 70 79 76 85 11 12 64 72 184 206 41 47 84 94 95 106 58 61 57 59 38 80
-10 11 -75 70 -145 132 l-126 112 -30 -32z"/>
<path d="M3909 11416 c-2 -2 -49 -6 -104 -10 -86 -6 -165 -13 -225 -21 -15 -2
-15 -7 -11 -86 l1 -30 73 6 c106 9 144 13 227 21 41 5 78 7 82 6 4 -1 6 15 4
36 -3 20 -5 47 -5 60 -1 19 -27 31 -42 18z"/>
<path d="M27545 11380 c-3 -4 -7 -32 -10 -61 -4 -50 -11 -121 -20 -209 -2 -19
-6 -68 -10 -109 -4 -41 -8 -83 -10 -92 -2 -10 -7 -53 -10 -96 -4 -43 -13 -115
-19 -161 -7 -46 -10 -85 -7 -87 3 -1 30 -6 60 -10 30 -4 61 -8 70 -10 23 -4
114 -14 194 -21 l67 -6 1 39 c0 21 2 47 5 58 2 11 6 40 8 65 9 93 17 166 21
195 2 17 6 66 10 110 4 44 8 87 10 95 5 20 19 184 19 234 1 37 0 39 -34 41
-19 2 -55 5 -80 8 -25 4 -85 9 -134 12 -48 4 -97 8 -107 10 -10 2 -21 0 -24
-5z"/>
<path d="M19965 11134 c-45 -38 -133 -116 -198 -176 l-58 -53 38 -43 38 -44
26 24 c14 13 46 41 71 63 112 98 188 170 188 177 0 10 -61 78 -69 78 -3 0 -19
-12 -36 -26z"/>
<path d="M3969 11036 c-3 -3 -47 -8 -99 -11 -52 -4 -97 -8 -100 -10 -3 -2 -39
-6 -80 -10 -41 -4 -79 -10 -84 -15 -4 -4 -5 -31 -1 -58 6 -47 8 -50 33 -47 15
2 59 6 97 9 144 13 246 26 257 32 4 2 4 26 1 52 -5 45 -14 67 -24 58z"/>
<path d="M20160 10792 c-195 -178 -194 -177 -178 -193 8 -8 81 -88 163 -179
82 -91 154 -170 159 -176 6 -6 43 -46 81 -89 39 -43 87 -96 107 -118 l37 -40
48 43 c218 197 243 223 230 234 -7 6 -53 56 -103 111 -49 55 -98 109 -109 120
-11 12 -51 57 -90 100 -113 127 -167 187 -210 232 l-40 43 -95 -88z"/>
<path d="M3850 10634 c-58 -7 -118 -15 -135 -17 -16 -3 -40 -6 -53 -6 -25 -1
-25 -4 -7 -141 3 -19 7 -62 10 -95 3 -33 8 -71 10 -85 2 -14 7 -43 9 -65 11
-94 19 -151 22 -169 2 -10 6 -44 10 -75 3 -31 8 -63 9 -72 2 -9 6 -40 10 -70
4 -30 9 -56 11 -58 4 -4 178 16 249 29 56 11 103 18 123 19 10 1 12 11 7 39
-3 20 -8 55 -11 77 -2 22 -6 56 -9 75 -2 19 -9 73 -15 120 -6 47 -13 96 -15
110 -2 14 -11 88 -20 165 -9 77 -18 149 -20 160 -2 11 -4 33 -4 48 -1 32 3 32
-181 11z"/>
<path d="M10952 10565 c-18 -19 -32 -37 -32 -40 0 -6 102 -103 169 -162 25
-21 61 -52 80 -70 l36 -32 38 41 38 41 -38 37 c-21 20 -69 65 -108 99 -38 35
-84 77 -102 92 -17 16 -35 29 -41 29 -5 0 -23 -16 -40 -35z"/>
<path d="M10696 10283 c-20 -21 -36 -40 -36 -44 0 -6 92 -93 234 -221 l50 -45
38 41 39 41 -88 83 c-48 46 -113 106 -144 133 l-57 49 -36 -37z"/>
<path d="M27427 10283 c-3 -4 -8 -29 -11 -55 -5 -36 -3 -48 6 -49 7 0 20 -2
28 -4 32 -6 168 -25 224 -30 33 -3 74 -8 91 -11 31 -5 33 -3 39 33 8 51 8 83
-1 81 -7 -2 -79 7 -147 17 -121 18 -224 27 -229 18z"/>
<path d="M20984 10047 c-19 -21 -226 -211 -251 -231 l-23 -20 41 -42 c32 -33
45 -40 54 -31 7 7 48 44 91 83 44 39 102 94 130 121 50 47 51 49 35 68 -39 46
-66 64 -77 52z"/>
<path d="M10434 9996 c-16 -18 -72 -79 -124 -136 -135 -146 -142 -154 -275
-295 -66 -70 -122 -132 -124 -137 -2 -6 2 -13 8 -17 6 -4 50 -45 98 -91 49
-46 107 -102 130 -123 l42 -40 43 45 c43 46 216 230 318 341 30 33 64 70 75
81 11 12 46 49 77 84 l57 62 -82 77 c-111 106 -199 183 -207 183 -4 0 -20 -15
-36 -34z"/>
<path d="M27369 9883 c0 -16 -3 -40 -5 -55 -5 -30 -4 -30 81 -42 126 -19 176
-25 225 -31 30 -4 58 -9 62 -11 11 -7 16 7 23 64 6 50 5 52 -17 53 -13 0 -30
2 -38 4 -39 9 -293 45 -317 45 -7 0 -13 -12 -14 -27z"/>
<path d="M21204 9722 c-134 -122 -224 -207 -224 -212 0 -8 66 -80 74 -80 4 0
17 10 30 23 13 12 45 42 72 66 27 24 80 73 117 109 l68 65 -37 38 c-21 22 -41
39 -44 39 -3 -1 -28 -22 -56 -48z"/>
<path d="M4070 9550 c-25 -4 -65 -11 -90 -15 -65 -10 -193 -34 -195 -37 -1 -2
3 -27 8 -56 l9 -54 34 7 c19 3 51 8 72 11 47 6 203 31 242 39 8 2 21 4 28 4 8
1 11 8 9 19 -3 9 -8 34 -12 55 -7 41 -13 43 -105 27z"/>
<path d="M27319 9523 c0 -4 -2 -17 -5 -28 -2 -11 -6 -37 -9 -59 -6 -45 -7 -53
-35 -216 -11 -69 -23 -138 -26 -155 -8 -46 -42 -234 -53 -290 -11 -56 -8 -61
34 -68 17 -3 86 -16 155 -30 188 -38 183 -38 192 3 7 34 61 339 73 410 6 39
16 95 21 125 2 11 7 40 10 65 3 25 7 52 9 60 2 8 7 38 11 65 3 28 8 53 10 56
4 6 -114 31 -211 44 -77 11 -105 15 -140 21 -19 3 -35 2 -36 -3z"/>
<path d="M21451 9423 c-41 -38 -106 -97 -143 -133 l-69 -66 43 -45 c24 -25
104 -109 178 -188 227 -242 351 -371 355 -371 9 0 275 260 275 269 0 3 -34 42
-76 86 -42 44 -135 143 -208 219 -72 76 -165 174 -206 218 l-75 78 -74 -67z"/>
<path d="M9677 9182 l-38 -39 127 -119 c69 -65 132 -125 140 -132 17 -16 32
-8 69 35 l27 33 -104 98 c-149 143 -170 162 -177 162 -4 0 -24 -17 -44 -38z"/>
<path d="M4075 9158 c-55 -9 -109 -19 -120 -21 -11 -3 -40 -8 -64 -12 l-43 -7
6 -51 c4 -28 9 -54 11 -57 3 -4 37 -1 77 6 40 7 114 20 163 29 152 27 146 25
141 43 -2 10 -7 34 -11 55 -7 43 -2 43 -160 15z"/>
<path d="M9423 8917 c-49 -53 -49 -52 29 -128 40 -39 100 -97 134 -130 33 -32
65 -59 70 -59 11 0 74 64 74 74 0 7 -89 96 -218 218 l-59 56 -30 -31z"/>
<path d="M4260 8800 c-19 -4 -51 -10 -70 -14 -88 -16 -256 -49 -266 -52 -8 -2
-6 -29 7 -96 11 -51 22 -106 25 -123 9 -56 75 -360 95 -445 12 -47 22 -93 25
-103 9 -48 16 -57 37 -52 128 27 176 38 256 59 51 13 95 26 97 28 2 3 -10 59
-26 125 -16 67 -31 132 -34 145 -2 13 -12 56 -20 95 -9 40 -18 87 -21 105 -3
17 -8 35 -10 39 -3 4 -7 24 -10 44 -2 21 -7 45 -9 54 -3 9 -8 30 -11 46 -3 17
-10 58 -16 93 -6 34 -12 61 -13 61 0 -1 -17 -5 -36 -9z"/>
<path d="M22148 8559 c-76 -72 -138 -134 -138 -138 0 -4 16 -24 36 -45 42 -45
24 -55 194 111 l125 122 -40 40 -40 41 -137 -131z"/>
<path d="M8895 8373 c-154 -156 -281 -290 -283 -296 -1 -7 59 -72 133 -146
l136 -134 176 179 c96 98 229 233 294 300 l119 121 -135 129 c-75 71 -141 130
-148 131 -6 1 -138 -127 -292 -284z"/>
<path d="M27122 8438 c-1 -18 -12 -70 -17 -85 -2 -7 -1 -13 3 -14 20 -2 62
-11 116 -25 67 -17 259 -55 261 -51 4 7 23 102 20 105 -4 4 -302 71 -346 77
-25 4 -36 2 -37 -7z"/>
<path d="M22412 8276 l-137 -135 41 -41 40 -41 139 135 c127 123 137 136 124
153 -22 28 -58 63 -64 63 -3 0 -67 -61 -143 -134z"/>
<path d="M22687 8002 l-138 -138 239 -234 c131 -129 266 -261 300 -294 l63
-58 70 73 c39 41 100 105 135 143 l64 69 -29 26 c-21 19 -526 508 -561 545 -3
3 -68 -57 -143 -132z"/>
<path d="M27032 8028 c-7 -28 -9 -55 -5 -59 10 -9 340 -89 368 -89 5 0 28 101
24 105 -5 4 -240 64 -279 71 -23 4 -35 7 -81 20 -12 3 -18 -8 -27 -48z"/>
<path d="M8367 7842 l-37 -38 134 -139 134 -139 40 35 c22 19 41 38 41 43 1 9
-259 276 -269 276 -3 0 -23 -17 -43 -38z"/>
<path d="M4495 7729 c-16 -5 -97 -27 -180 -49 -82 -23 -151 -42 -152 -44 -2
-1 3 -23 11 -49 7 -25 11 -48 8 -51 -9 -10 5 -7 126 24 190 49 247 65 251 70
6 8 -20 110 -27 109 -4 -1 -20 -5 -37 -10z"/>
<path d="M26949 7709 c0 -2 -2 -11 -4 -19 -14 -70 -127 -429 -195 -620 -27
-74 -48 -135 -47 -136 21 -12 344 -134 357 -134 18 0 225 619 255 763 2 9 6
21 10 26 3 5 1 12 -5 16 -11 7 -196 59 -280 80 -30 7 -63 16 -72 20 -10 4 -18
6 -19 4z"/>
<path d="M8097 7584 c-20 -19 -37 -39 -37 -44 0 -10 45 -60 182 -202 l77 -81
35 29 c19 16 37 35 40 41 5 12 -47 72 -189 218 l-71 73 -37 -34z"/>
<path d="M4615 7365 c-5 -2 -82 -25 -170 -50 -88 -26 -164 -51 -169 -55 -10
-10 22 -110 36 -110 16 0 342 111 351 119 11 10 -14 101 -28 100 -5 0 -14 -2
-20 -4z"/>
<path d="M23593 7356 c-4 -7 -48 -57 -98 -111 -49 -53 -103 -111 -118 -127
l-28 -31 43 -38 43 -38 50 53 c28 29 87 93 132 143 l82 90 -37 36 c-41 40 -56
45 -69 23z"/>
<path d="M7829 7333 c-13 -15 -146 -138 -209 -193 -9 -8 -86 -76 -170 -150
-85 -74 -166 -146 -182 -160 l-29 -25 88 -106 c168 -202 161 -194 180 -177 10
8 31 26 47 39 16 13 55 47 86 74 30 28 84 75 119 105 35 30 73 63 85 73 24 21
179 164 236 218 l38 35 -29 35 c-61 70 -231 249 -238 249 -4 0 -14 -8 -22 -17z"/>
<path d="M23878 7097 c-7 -8 -49 -56 -93 -107 -44 -51 -95 -109 -113 -129
l-32 -36 42 -38 42 -38 45 49 c25 26 73 80 106 118 33 38 70 80 82 94 13 14
23 28 23 32 0 8 -72 68 -82 68 -3 0 -13 -6 -20 -13z"/>
<path d="M4740 7013 c-8 -3 -28 -11 -45 -18 -16 -7 -86 -34 -155 -60 -69 -26
-129 -51 -133 -55 -31 -27 336 -796 371 -777 117 64 322 193 322 202 0 3 -18
34 -40 70 -60 98 -160 303 -222 455 -73 177 -71 174 -70 183 2 8 -6 8 -28 0z"/>
<path d="M24088 6749 c-51 -62 -107 -128 -124 -147 l-31 -35 61 -51 c34 -28
67 -57 75 -64 44 -42 474 -379 518 -405 7 -5 54 50 127 149 l115 157 -128 96
c-146 111 -298 232 -422 338 -47 40 -89 73 -92 73 -3 0 -47 -50 -99 -111z"/>
<path d="M26577 6648 c-14 -34 -15 -44 -5 -54 7 -7 85 -50 173 -94 l160 -82
22 49 c12 26 22 53 22 59 1 6 -25 22 -56 36 -171 77 -263 117 -280 122 -14 4
-22 -3 -36 -36z"/>
<path d="M6983 6596 l-41 -32 70 -90 c73 -92 117 -146 155 -192 l22 -26 33 29
c18 17 37 33 41 36 7 6 -15 52 -33 69 -3 3 -32 39 -65 80 -32 41 -62 77 -65
80 -3 3 -19 22 -34 43 -16 20 -31 37 -35 36 -3 0 -25 -15 -48 -33z"/>
<path d="M6683 6368 c-51 -37 -60 -17 90 -216 l99 -132 31 22 c65 45 66 39
-19 156 -43 59 -83 112 -89 118 -5 6 -21 27 -35 47 -14 20 -27 37 -30 37 -3
-1 -24 -15 -47 -32z"/>
<path d="M26406 6330 c-14 -22 -26 -45 -26 -52 1 -11 104 -78 280 -180 l47
-28 30 48 30 48 -121 76 c-67 41 -142 87 -168 101 l-46 26 -26 -39z"/>
<path d="M25035 6186 c-104 -151 -207 -307 -204 -310 14 -12 90 -56 97 -56 12
0 202 306 202 324 0 5 -75 56 -82 56 -2 0 -8 -6 -13 -14z"/>
<path d="M6330 6131 c-202 -123 -397 -214 -523 -242 l-57 -14 6 -50 c3 -27 7
-61 9 -75 8 -75 17 -137 22 -154 3 -10 7 -36 8 -58 2 -22 6 -42 9 -46 13 -12
201 41 331 95 122 50 484 248 499 272 3 5 -119 196 -151 236 -41 51 -61 84
-56 89 13 13 -5 3 -97 -53z"/>
<path d="M5224 6093 c-11 -10 -40 -36 -64 -57 -25 -22 -80 -73 -124 -113 l-79
-74 29 -32 c68 -75 63 -73 87 -46 42 46 133 154 172 204 22 28 45 55 53 60 10
8 6 17 -21 43 -32 31 -34 31 -53 15z"/>
<path d="M26195 6056 c-136 -146 -330 -219 -474 -176 -19 5 -36 8 -38 7 -9 -9
-105 -368 -100 -374 9 -9 157 -35 214 -37 146 -8 329 46 481 141 39 25 129 99
189 156 l51 50 -26 24 c-15 14 -65 60 -111 102 -46 42 -93 85 -105 96 -48 45
-49 45 -81 11z"/>
<path d="M25302 5907 c-33 -61 -74 -140 -90 -175 l-31 -62 59 -30 58 -29 23
52 c48 110 87 207 84 207 -2 0 7 21 20 48 26 52 24 55 -37 88 l-26 14 -60
-113z"/>
<path d="M5490 5901 c0 -6 -12 -30 -27 -54 -87 -137 -161 -277 -150 -284 28
-18 128 -50 133 -42 2 4 11 28 19 51 7 24 34 103 59 177 25 74 46 135 46 136
0 2 -10 5 -22 8 -13 2 -31 8 -40 12 -11 4 -18 3 -18 -4z"/>
</g>
</svg>
