<?xml version="1.0" encoding="UTF-8"?>
<svg xmlns="http://www.w3.org/2000/svg" xmlns:xlink="http://www.w3.org/1999/xlink" width="113.39pt" height="113.39pt" viewBox="0 0 113.39 113.39" version="1.1">
<defs>
<clipPath id="clip1">
  <path d="M 0 0 L 113.382812 0 L 113.382812 113 L 0 113 Z M 0 0 "/>
</clipPath>
</defs>
<g id="surface1">
<g clip-path="url(#clip1)" clip-rule="nonzero">
<path style="fill:none;stroke-width:1.39478;stroke-linecap:butt;stroke-linejoin:miter;stroke:rgb(0%,0%,0%);stroke-opacity:1;stroke-dasharray:2.98883,0.99628,0.3985,0.99628,0.3985,0.99628;stroke-miterlimit:10;" d="M 36.282656 36.28375 C 46.352969 36.28375 46.352969 -36.282656 36.282656 -36.282656 C 26.21625 -36.282656 -26.213437 36.28375 -36.28375 36.28375 C -46.354062 36.28375 -46.354062 -36.282656 -36.28375 -36.282656 C -26.213437 -36.282656 26.21625 36.28375 36.282656 36.28375 Z M 36.282656 36.28375 " transform="matrix(1,0,0,-1,56.69,56.69)"/>
</g>
<path style="fill:none;stroke-width:0.59776;stroke-linecap:butt;stroke-linejoin:miter;stroke:rgb(100%,100%,100%);stroke-opacity:1;stroke-dasharray:2.98883,0.99628,0.3985,0.99628,0.3985,0.99628;stroke-miterlimit:10;" d="M 36.282656 36.28375 C 46.352969 36.28375 46.352969 -36.282656 36.282656 -36.282656 C 26.21625 -36.282656 -26.213437 36.28375 -36.28375 36.28375 C -46.354062 36.28375 -46.354062 -36.282656 -36.28375 -36.282656 C -26.213437 -36.282656 26.21625 36.28375 36.282656 36.28375 Z M 36.282656 36.28375 " transform="matrix(1,0,0,-1,56.69,56.69)"/>
</g>
</svg>
