<?xml version="1.0" encoding="UTF-8"?>
<svg xmlns="http://www.w3.org/2000/svg" xmlns:xlink="http://www.w3.org/1999/xlink" width="113.39pt" height="113.39pt" viewBox="0 0 113.39 113.39" version="1.1">
<defs>
<clipPath id="clip1">
  <path d="M 0 0 L 113.382812 0 L 113.382812 113.382812 L 0 113.382812 Z M 0 0 "/>
</clipPath>
</defs>
<g id="surface1">
<path style=" stroke:none;fill-rule:nonzero;fill:rgb(12.998962%,51.998901%,81.999207%);fill-opacity:1;" d="M 92.972656 20.40625 C 103.042969 20.40625 103.042969 92.972656 92.972656 92.972656 C 82.90625 92.972656 30.476562 20.40625 20.40625 20.40625 C 10.335938 20.40625 10.335938 92.972656 20.40625 92.972656 C 30.476562 92.972656 82.90625 20.40625 92.972656 20.40625 Z M 92.972656 20.40625 "/>
<g clip-path="url(#clip1)" clip-rule="nonzero">
<path style="fill:none;stroke-width:7.2634;stroke-linecap:butt;stroke-linejoin:miter;stroke:rgb(0%,0%,0%);stroke-opacity:1;stroke-miterlimit:10;" d="M 36.282656 36.28375 C 46.352969 36.28375 46.352969 -36.282656 36.282656 -36.282656 C 26.21625 -36.282656 -26.213437 36.28375 -36.28375 36.28375 C -46.354062 36.28375 -46.354062 -36.282656 -36.28375 -36.282656 C -26.213437 -36.282656 26.21625 36.28375 36.282656 36.28375 Z M 36.282656 36.28375 " transform="matrix(1,0,0,-1,56.69,56.69)"/>
<path style="fill:none;stroke-width:5.66934;stroke-linecap:butt;stroke-linejoin:miter;stroke:rgb(100%,100%,100%);stroke-opacity:1;stroke-miterlimit:10;" d="M 36.282656 36.28375 C 46.352969 36.28375 46.352969 -36.282656 36.282656 -36.282656 C 26.21625 -36.282656 -26.213437 36.28375 -36.28375 36.28375 C -46.354062 36.28375 -46.354062 -36.282656 -36.28375 -36.282656 C -26.213437 -36.282656 26.21625 36.28375 36.282656 36.28375 Z M 36.282656 36.28375 " transform="matrix(1,0,0,-1,56.69,56.69)"/>
</g>
</g>
</svg>
